<mxfile host="app.diagrams.net" modified="2024-06-16T14:27:29.763Z" agent="Mozilla/5.0 (Windows NT 10.0; Win64; x64) AppleWebKit/537.36 (KHTML, like Gecko) Chrome/126.0.0.0 Safari/537.36" etag="VJuTuwada8vYG6GVK98V" version="24.5.4" type="github">
  <diagram id="C5RBs43oDa-KdzZeNtuy" name="Page-1">
    <mxGraphModel dx="1035" dy="551" grid="1" gridSize="10" guides="1" tooltips="1" connect="1" arrows="1" fold="1" page="1" pageScale="1" pageWidth="827" pageHeight="1169" math="0" shadow="0">
      <root>
        <mxCell id="WIyWlLk6GJQsqaUBKTNV-0" />
        <mxCell id="WIyWlLk6GJQsqaUBKTNV-1" parent="WIyWlLk6GJQsqaUBKTNV-0" />
        <mxCell id="X9NlY2EqK_BSnwDNgWu7-51" style="edgeStyle=orthogonalEdgeStyle;rounded=0;orthogonalLoop=1;jettySize=auto;html=1;exitX=0.5;exitY=1;exitDx=0;exitDy=0;" parent="WIyWlLk6GJQsqaUBKTNV-1" source="X9NlY2EqK_BSnwDNgWu7-1" edge="1">
          <mxGeometry relative="1" as="geometry">
            <mxPoint x="360.2222222222222" y="120" as="targetPoint" />
          </mxGeometry>
        </mxCell>
        <mxCell id="X9NlY2EqK_BSnwDNgWu7-1" value="Bắt đầu" style="ellipse;whiteSpace=wrap;html=1;" parent="WIyWlLk6GJQsqaUBKTNV-1" vertex="1">
          <mxGeometry x="310" width="100" height="70" as="geometry" />
        </mxCell>
        <mxCell id="ITiGK6gSrckKvconHX2r-1" value="" style="edgeStyle=orthogonalEdgeStyle;rounded=0;orthogonalLoop=1;jettySize=auto;html=1;" edge="1" parent="WIyWlLk6GJQsqaUBKTNV-1" source="X9NlY2EqK_BSnwDNgWu7-2" target="X9NlY2EqK_BSnwDNgWu7-25">
          <mxGeometry relative="1" as="geometry" />
        </mxCell>
        <mxCell id="X9NlY2EqK_BSnwDNgWu7-2" value="Có cháy ?" style="rhombus;whiteSpace=wrap;html=1;" parent="WIyWlLk6GJQsqaUBKTNV-1" vertex="1">
          <mxGeometry x="270" y="320" width="180" height="85" as="geometry" />
        </mxCell>
        <mxCell id="X9NlY2EqK_BSnwDNgWu7-4" value="Đúng" style="text;html=1;align=center;verticalAlign=middle;whiteSpace=wrap;rounded=0;" parent="WIyWlLk6GJQsqaUBKTNV-1" vertex="1">
          <mxGeometry x="350" y="405" width="60" height="30" as="geometry" />
        </mxCell>
        <mxCell id="X9NlY2EqK_BSnwDNgWu7-6" value="Sai" style="text;html=1;align=center;verticalAlign=middle;whiteSpace=wrap;rounded=0;" parent="WIyWlLk6GJQsqaUBKTNV-1" vertex="1">
          <mxGeometry x="440" y="330" width="60" height="30" as="geometry" />
        </mxCell>
        <mxCell id="X9NlY2EqK_BSnwDNgWu7-56" style="edgeStyle=orthogonalEdgeStyle;rounded=0;orthogonalLoop=1;jettySize=auto;html=1;exitX=0.5;exitY=1;exitDx=0;exitDy=0;entryX=0.5;entryY=0;entryDx=0;entryDy=0;" parent="WIyWlLk6GJQsqaUBKTNV-1" source="X9NlY2EqK_BSnwDNgWu7-7" target="X9NlY2EqK_BSnwDNgWu7-25" edge="1">
          <mxGeometry relative="1" as="geometry" />
        </mxCell>
        <mxCell id="X9NlY2EqK_BSnwDNgWu7-7" value="Bật còi báo" style="rounded=0;whiteSpace=wrap;html=1;" parent="WIyWlLk6GJQsqaUBKTNV-1" vertex="1">
          <mxGeometry x="290" y="440" width="140" height="40" as="geometry" />
        </mxCell>
        <mxCell id="X9NlY2EqK_BSnwDNgWu7-64" style="edgeStyle=orthogonalEdgeStyle;rounded=0;orthogonalLoop=1;jettySize=auto;html=1;exitX=0.5;exitY=1;exitDx=0;exitDy=0;entryX=0.5;entryY=0;entryDx=0;entryDy=0;" parent="WIyWlLk6GJQsqaUBKTNV-1" source="X9NlY2EqK_BSnwDNgWu7-10" target="X9NlY2EqK_BSnwDNgWu7-13" edge="1">
          <mxGeometry relative="1" as="geometry" />
        </mxCell>
        <mxCell id="X9NlY2EqK_BSnwDNgWu7-10" value="Thời gian cháy &amp;gt; 3 giây ?" style="rhombus;whiteSpace=wrap;html=1;" parent="WIyWlLk6GJQsqaUBKTNV-1" vertex="1">
          <mxGeometry x="270" y="590" width="180" height="80" as="geometry" />
        </mxCell>
        <mxCell id="X9NlY2EqK_BSnwDNgWu7-60" style="edgeStyle=orthogonalEdgeStyle;rounded=0;orthogonalLoop=1;jettySize=auto;html=1;exitX=0.5;exitY=1;exitDx=0;exitDy=0;entryX=0.5;entryY=0;entryDx=0;entryDy=0;" parent="WIyWlLk6GJQsqaUBKTNV-1" source="X9NlY2EqK_BSnwDNgWu7-13" target="X9NlY2EqK_BSnwDNgWu7-41" edge="1">
          <mxGeometry relative="1" as="geometry" />
        </mxCell>
        <mxCell id="X9NlY2EqK_BSnwDNgWu7-13" value="Bật máy bơm" style="rounded=0;whiteSpace=wrap;html=1;" parent="WIyWlLk6GJQsqaUBKTNV-1" vertex="1">
          <mxGeometry x="290" y="710" width="140" height="40" as="geometry" />
        </mxCell>
        <mxCell id="X9NlY2EqK_BSnwDNgWu7-17" value="Kết thúc" style="ellipse;whiteSpace=wrap;html=1;" parent="WIyWlLk6GJQsqaUBKTNV-1" vertex="1">
          <mxGeometry x="310" y="1090" width="100" height="70" as="geometry" />
        </mxCell>
        <mxCell id="X9NlY2EqK_BSnwDNgWu7-49" value="" style="edgeStyle=orthogonalEdgeStyle;rounded=0;orthogonalLoop=1;jettySize=auto;html=1;" parent="WIyWlLk6GJQsqaUBKTNV-1" source="X9NlY2EqK_BSnwDNgWu7-18" edge="1">
          <mxGeometry relative="1" as="geometry">
            <mxPoint x="360" y="320" as="targetPoint" />
          </mxGeometry>
        </mxCell>
        <mxCell id="X9NlY2EqK_BSnwDNgWu7-18" value="Đọc dữ liệu từ cảm biến cháy" style="rounded=0;whiteSpace=wrap;html=1;" parent="WIyWlLk6GJQsqaUBKTNV-1" vertex="1">
          <mxGeometry x="280" y="220" width="160" height="60" as="geometry" />
        </mxCell>
        <mxCell id="X9NlY2EqK_BSnwDNgWu7-21" value="Nhận tín hiệu SIM từ Module SIM" style="rounded=0;whiteSpace=wrap;html=1;" parent="WIyWlLk6GJQsqaUBKTNV-1" vertex="1">
          <mxGeometry x="280" y="120" width="160" height="60" as="geometry" />
        </mxCell>
        <mxCell id="X9NlY2EqK_BSnwDNgWu7-23" value="" style="endArrow=classic;html=1;rounded=0;exitX=0.5;exitY=1;exitDx=0;exitDy=0;" parent="WIyWlLk6GJQsqaUBKTNV-1" source="X9NlY2EqK_BSnwDNgWu7-21" edge="1">
          <mxGeometry width="50" height="50" relative="1" as="geometry">
            <mxPoint x="390" y="270" as="sourcePoint" />
            <mxPoint x="360" y="220" as="targetPoint" />
          </mxGeometry>
        </mxCell>
        <mxCell id="X9NlY2EqK_BSnwDNgWu7-25" value="Gửi tin nhắn cảnh báo" style="rounded=0;whiteSpace=wrap;html=1;" parent="WIyWlLk6GJQsqaUBKTNV-1" vertex="1">
          <mxGeometry x="290" y="510" width="140" height="40" as="geometry" />
        </mxCell>
        <mxCell id="X9NlY2EqK_BSnwDNgWu7-28" value="Đúng" style="text;html=1;align=center;verticalAlign=middle;whiteSpace=wrap;rounded=0;" parent="WIyWlLk6GJQsqaUBKTNV-1" vertex="1">
          <mxGeometry x="350" y="670" width="60" height="30" as="geometry" />
        </mxCell>
        <mxCell id="X9NlY2EqK_BSnwDNgWu7-31" value="Sai" style="text;html=1;align=center;verticalAlign=middle;whiteSpace=wrap;rounded=0;" parent="WIyWlLk6GJQsqaUBKTNV-1" vertex="1">
          <mxGeometry x="440" y="600" width="60" height="30" as="geometry" />
        </mxCell>
        <mxCell id="X9NlY2EqK_BSnwDNgWu7-61" style="edgeStyle=orthogonalEdgeStyle;rounded=0;orthogonalLoop=1;jettySize=auto;html=1;exitX=0.5;exitY=1;exitDx=0;exitDy=0;entryX=0.5;entryY=0;entryDx=0;entryDy=0;" parent="WIyWlLk6GJQsqaUBKTNV-1" source="X9NlY2EqK_BSnwDNgWu7-32" target="X9NlY2EqK_BSnwDNgWu7-34" edge="1">
          <mxGeometry relative="1" as="geometry" />
        </mxCell>
        <mxCell id="X9NlY2EqK_BSnwDNgWu7-67" style="edgeStyle=orthogonalEdgeStyle;rounded=0;orthogonalLoop=1;jettySize=auto;html=1;exitX=0;exitY=0.5;exitDx=0;exitDy=0;" parent="WIyWlLk6GJQsqaUBKTNV-1" edge="1">
          <mxGeometry relative="1" as="geometry">
            <mxPoint x="360" y="690" as="targetPoint" />
            <mxPoint x="305.0000000000001" y="880" as="sourcePoint" />
            <Array as="points">
              <mxPoint x="220" y="880" />
              <mxPoint x="220" y="690" />
            </Array>
          </mxGeometry>
        </mxCell>
        <mxCell id="X9NlY2EqK_BSnwDNgWu7-32" value="Hết cháy ?" style="rhombus;whiteSpace=wrap;html=1;" parent="WIyWlLk6GJQsqaUBKTNV-1" vertex="1">
          <mxGeometry x="300" y="840" width="120" height="80" as="geometry" />
        </mxCell>
        <mxCell id="X9NlY2EqK_BSnwDNgWu7-68" style="edgeStyle=orthogonalEdgeStyle;rounded=0;orthogonalLoop=1;jettySize=auto;html=1;exitX=0.5;exitY=1;exitDx=0;exitDy=0;entryX=0.5;entryY=0;entryDx=0;entryDy=0;" parent="WIyWlLk6GJQsqaUBKTNV-1" source="X9NlY2EqK_BSnwDNgWu7-34" target="X9NlY2EqK_BSnwDNgWu7-43" edge="1">
          <mxGeometry relative="1" as="geometry" />
        </mxCell>
        <mxCell id="X9NlY2EqK_BSnwDNgWu7-34" value="Tắt máy bơm" style="rounded=0;whiteSpace=wrap;html=1;" parent="WIyWlLk6GJQsqaUBKTNV-1" vertex="1">
          <mxGeometry x="290" y="950" width="140" height="40" as="geometry" />
        </mxCell>
        <mxCell id="X9NlY2EqK_BSnwDNgWu7-36" value="Đúng" style="text;html=1;align=center;verticalAlign=middle;whiteSpace=wrap;rounded=0;" parent="WIyWlLk6GJQsqaUBKTNV-1" vertex="1">
          <mxGeometry x="354" y="920" width="60" height="30" as="geometry" />
        </mxCell>
        <mxCell id="X9NlY2EqK_BSnwDNgWu7-38" value="Sai" style="text;html=1;align=center;verticalAlign=middle;whiteSpace=wrap;rounded=0;" parent="WIyWlLk6GJQsqaUBKTNV-1" vertex="1">
          <mxGeometry x="230" y="850" width="60" height="30" as="geometry" />
        </mxCell>
        <mxCell id="X9NlY2EqK_BSnwDNgWu7-40" value="" style="endArrow=classic;html=1;rounded=0;exitX=0.5;exitY=1;exitDx=0;exitDy=0;" parent="WIyWlLk6GJQsqaUBKTNV-1" source="X9NlY2EqK_BSnwDNgWu7-25" edge="1">
          <mxGeometry width="50" height="50" relative="1" as="geometry">
            <mxPoint x="320" y="760" as="sourcePoint" />
            <mxPoint x="360" y="590" as="targetPoint" />
          </mxGeometry>
        </mxCell>
        <mxCell id="X9NlY2EqK_BSnwDNgWu7-46" style="edgeStyle=orthogonalEdgeStyle;rounded=0;orthogonalLoop=1;jettySize=auto;html=1;exitX=0.5;exitY=1;exitDx=0;exitDy=0;entryX=0.5;entryY=0;entryDx=0;entryDy=0;" parent="WIyWlLk6GJQsqaUBKTNV-1" source="X9NlY2EqK_BSnwDNgWu7-41" target="X9NlY2EqK_BSnwDNgWu7-32" edge="1">
          <mxGeometry relative="1" as="geometry" />
        </mxCell>
        <mxCell id="X9NlY2EqK_BSnwDNgWu7-41" value="Gửi tin nhắn cập nhật trạng trái" style="rounded=0;whiteSpace=wrap;html=1;" parent="WIyWlLk6GJQsqaUBKTNV-1" vertex="1">
          <mxGeometry x="290" y="770" width="140" height="40" as="geometry" />
        </mxCell>
        <mxCell id="X9NlY2EqK_BSnwDNgWu7-70" style="edgeStyle=orthogonalEdgeStyle;rounded=0;orthogonalLoop=1;jettySize=auto;html=1;exitX=0.5;exitY=1;exitDx=0;exitDy=0;entryX=0.5;entryY=0;entryDx=0;entryDy=0;" parent="WIyWlLk6GJQsqaUBKTNV-1" source="X9NlY2EqK_BSnwDNgWu7-43" target="X9NlY2EqK_BSnwDNgWu7-17" edge="1">
          <mxGeometry relative="1" as="geometry" />
        </mxCell>
        <mxCell id="X9NlY2EqK_BSnwDNgWu7-43" value="Gửi tin nhắn cập nhật trạng thái" style="rounded=0;whiteSpace=wrap;html=1;" parent="WIyWlLk6GJQsqaUBKTNV-1" vertex="1">
          <mxGeometry x="290" y="1020" width="140" height="40" as="geometry" />
        </mxCell>
        <mxCell id="X9NlY2EqK_BSnwDNgWu7-57" style="edgeStyle=orthogonalEdgeStyle;rounded=0;orthogonalLoop=1;jettySize=auto;html=1;exitX=1;exitY=0.5;exitDx=0;exitDy=0;" parent="WIyWlLk6GJQsqaUBKTNV-1" source="X9NlY2EqK_BSnwDNgWu7-2" edge="1">
          <mxGeometry relative="1" as="geometry">
            <mxPoint x="360" y="300" as="targetPoint" />
            <Array as="points">
              <mxPoint x="500" y="363" />
              <mxPoint x="500" y="300" />
            </Array>
          </mxGeometry>
        </mxCell>
        <mxCell id="ITiGK6gSrckKvconHX2r-2" value="" style="endArrow=classic;html=1;rounded=0;exitX=1;exitY=0.5;exitDx=0;exitDy=0;" edge="1" parent="WIyWlLk6GJQsqaUBKTNV-1" source="X9NlY2EqK_BSnwDNgWu7-10">
          <mxGeometry width="50" height="50" relative="1" as="geometry">
            <mxPoint x="270" y="660" as="sourcePoint" />
            <mxPoint x="360" y="570" as="targetPoint" />
            <Array as="points">
              <mxPoint x="500" y="630" />
              <mxPoint x="500" y="590" />
              <mxPoint x="500" y="570" />
            </Array>
          </mxGeometry>
        </mxCell>
      </root>
    </mxGraphModel>
  </diagram>
</mxfile>
